<?xml version="1.0" standalone="no"?>
<!DOCTYPE svg PUBLIC "-//W3C//DTD SVG 20010904//EN"
 "http://www.w3.org/TR/2001/REC-SVG-20010904/DTD/svg10.dtd">
<svg version="1.0" xmlns="http://www.w3.org/2000/svg"
 width="512.000000pt" height="512.000000pt" viewBox="0 0 512.000000 512.000000"
 preserveAspectRatio="xMidYMid meet">
<metadata>
Created by potrace 1.11, written by Peter Selinger 2001-2013
</metadata>
<g transform="translate(0.000000,512.000000) scale(0.100000,-0.100000)"
fill="#000000" stroke="none">
<path d="M2580 5102 c0 -4 -62 -8 -138 -9 -76 -1 -151 -7 -165 -12 -15 -6 -27
-7 -27 -2 0 9 -30 8 -46 -2 -6 -3 -38 -9 -70 -12 -122 -12 -138 -15 -146 -27
-6 -11 -8 -11 -8 0 0 7 -4 11 -8 8 -8 -5 -24 -9 -87 -21 -16 -3 -37 -8 -45
-10 -8 -3 -33 -7 -55 -11 -22 -3 -43 -8 -47 -11 -9 -5 -47 -14 -65 -15 -7 -1
-13 -5 -13 -10 0 -5 -4 -6 -10 -3 -5 3 -16 3 -22 -2 -14 -8 -27 -11 -73 -17
-37 -5 -229 -76 -233 -87 -2 -4 -10 -5 -18 -2 -8 3 -14 0 -14 -7 0 -7 -8 -10
-19 -7 -11 2 -24 -3 -31 -13 -7 -10 -19 -16 -27 -13 -7 3 -13 0 -13 -7 0 -6
-4 -9 -9 -5 -5 3 -12 1 -16 -5 -4 -6 -11 -8 -16 -5 -5 4 -9 3 -9 -2 0 -4 -32
-24 -70 -42 -39 -19 -70 -38 -70 -42 0 -4 -11 -10 -25 -13 -14 -4 -25 -11 -25
-16 0 -6 -5 -10 -10 -10 -11 0 -95 -60 -139 -99 -13 -11 -28 -21 -33 -21 -5 0
-6 -4 -3 -10 3 -5 2 -10 -3 -10 -9 0 -67 -57 -117 -115 -14 -16 -39 -56 -55
-87 l-30 -57 0 -225 c0 -124 -4 -227 -8 -230 -11 -6 -37 24 -77 85 -48 77
-110 96 -160 49 -21 -20 -28 -41 -41 -120 -2 -14 -6 -34 -8 -45 -28 -128 -28
-531 -1 -665 3 -14 8 -41 11 -60 3 -19 7 -42 9 -50 2 -8 7 -31 10 -50 31 -182
183 -585 258 -678 10 -12 17 -192 7 -192 -10 0 -5 -65 5 -72 7 -5 7 -8 0 -8
-6 0 -10 -35 -10 -85 1 -52 -3 -85 -10 -85 -7 0 -7 -3 0 -8 9 -6 12 -57 5 -79
-1 -5 -1 -12 0 -18 7 -28 4 -95 -4 -95 -4 0 -3 -6 3 -13 6 -8 8 -16 5 -20 -11
-11 -11 -57 0 -57 7 0 7 -3 1 -8 -13 -9 -14 -75 0 -84 7 -5 6 -8 -1 -8 -8 0
-12 -22 -11 -63 0 -34 -3 -68 -7 -75 -4 -7 -3 -12 1 -12 5 0 6 -26 3 -57 -3
-32 -5 -137 -5 -234 0 -142 3 -179 15 -194 8 -10 14 -21 13 -24 -4 -12 42 -99
49 -95 4 3 8 -2 8 -10 0 -8 9 -21 20 -29 11 -8 18 -16 15 -19 -3 -2 6 -11 20
-18 14 -7 25 -17 25 -22 0 -4 7 -8 15 -8 8 0 15 -4 15 -8 0 -4 20 -16 45 -26
25 -11 45 -24 45 -29 0 -6 3 -8 6 -4 4 3 25 -3 48 -15 22 -11 43 -20 45 -19 2
2 7 -1 10 -6 8 -11 63 -37 74 -35 4 1 7 -2 7 -6 0 -5 18 -15 40 -22 22 -7 40
-16 40 -20 0 -4 10 -11 23 -15 12 -4 24 -8 27 -9 33 -13 226 -113 228 -119 2
-4 8 -7 14 -7 17 0 108 -44 108 -52 0 -5 9 -8 20 -8 11 0 20 -3 20 -7 0 -5 21
-17 48 -27 26 -11 70 -30 99 -43 28 -12 58 -23 66 -23 7 0 17 -3 21 -7 3 -4
17 -9 29 -11 38 -6 42 -7 54 -15 7 -5 17 -6 22 -2 5 3 12 1 16 -4 3 -6 12 -8
20 -4 8 3 15 0 15 -6 0 -9 5 -9 21 0 17 9 20 8 14 -2 -6 -8 -4 -11 7 -6 9 3
21 0 27 -6 8 -8 11 -8 11 2 0 7 5 9 13 4 17 -12 1208 -12 1200 0 -3 5 4 4 14
-2 11 -6 22 -8 25 -6 3 3 25 7 49 10 24 2 67 9 94 15 28 6 58 12 68 13 9 1 17
5 17 10 0 4 6 7 13 6 6 -1 21 1 32 5 82 30 131 51 137 60 4 6 8 7 8 2 0 -5 7
-3 15 4 8 7 15 9 15 5 0 -5 9 0 20 10 11 10 20 15 20 11 0 -3 18 5 40 19 22
14 40 22 40 18 0 -5 4 -3 8 2 4 6 27 20 52 31 25 11 83 40 130 64 47 24 87 45
90 45 14 4 68 31 91 47 14 9 29 15 33 11 3 -3 6 -1 6 5 0 7 3 12 8 11 15 -2
52 14 52 22 0 5 9 9 20 9 11 0 20 4 20 10 0 5 3 9 8 8 11 -4 72 26 72 35 0 5
5 5 10 2 6 -3 10 -1 10 4 0 6 3 10 8 9 13 -4 137 63 155 84 9 11 17 17 17 13
0 -4 10 5 22 21 13 16 28 35 35 42 7 7 13 18 13 23 0 5 8 18 18 29 9 11 17 24
17 28 1 4 7 24 14 45 7 20 14 54 16 75 2 20 4 37 5 37 5 0 6 46 1 50 -6 3 -8
68 -14 455 -1 76 -6 138 -12 142 -6 5 -5 8 4 8 10 0 11 3 2 14 -7 8 -8 17 -3
20 5 3 6 27 3 53 -3 26 -6 119 -6 205 0 87 -4 158 -8 158 -5 0 -5 5 -1 12 4 7
6 33 5 58 -10 132 -6 166 26 216 61 96 187 409 209 517 2 10 6 28 10 40 4 12
9 29 10 37 1 8 5 29 8 45 13 63 36 202 43 255 10 79 9 402 -1 490 -12 98 -12
101 -19 130 -4 14 -8 40 -11 59 -5 39 -37 77 -73 86 -26 6 -83 -11 -83 -24 0
-4 -8 -16 -18 -27 -10 -10 -28 -35 -40 -55 -12 -20 -30 -43 -39 -50 -12 -10
-15 -10 -9 -1 4 6 2 12 -3 12 -8 0 -11 72 -11 220 0 189 -2 226 -17 253 -9 18
-18 37 -19 43 -1 6 -12 22 -25 36 -13 14 -40 45 -59 68 -47 57 -150 156 -150
144 0 -4 -8 3 -19 14 -10 12 -23 22 -30 22 -6 0 -11 5 -11 10 0 6 -7 10 -15
10 -8 0 -15 5 -15 11 0 5 -4 8 -9 5 -5 -3 -11 1 -15 9 -3 8 -12 15 -21 15 -8
0 -15 3 -15 8 0 4 -10 12 -23 17 -47 22 -112 60 -119 70 -4 6 -8 7 -8 2 0 -4
-21 4 -47 17 -44 22 -64 30 -125 55 -13 5 -39 16 -58 24 -61 27 -164 59 -199
64 -19 2 -42 8 -52 13 -10 6 -27 10 -38 10 -12 0 -21 3 -21 8 0 4 -10 8 -23 9
-23 2 -62 10 -62 13 0 1 -32 8 -65 13 -8 1 -20 6 -27 10 -6 4 -15 2 -19 -4 -5
-8 -9 -8 -14 2 -5 7 -21 13 -37 14 -15 1 -37 4 -48 8 -11 3 -40 8 -65 11 -25
3 -61 7 -80 10 -151 21 -200 26 -347 30 -73 3 -137 7 -142 10 -5 4 -13 2 -16
-4 -5 -8 -12 -7 -23 2 -11 10 -16 10 -19 1 -3 -8 -12 -9 -29 -3 -13 5 -24 6
-24 2z"/>
</g>
</svg>
